<svg width="68" height="34" viewBox="0 0 68 34" fill="none" xmlns="http://www.w3.org/2000/svg">
<mask id="mask0_409_2661" style="mask-type:luminance" maskUnits="userSpaceOnUse" x="0" y="0" width="68" height="34">
<path d="M67.6004 0.679993H0.400391V33.32H67.6004V0.679993Z" fill="white"/>
</mask>
<g mask="url(#mask0_409_2661)">
<path d="M6.20839 33.32C5.15239 33.32 4.17641 33.0642 3.28039 32.552C2.41639 32.0082 1.71237 31.304 1.16839 30.44C0.656374 29.5438 0.400391 28.568 0.400391 27.512V11.288C0.400391 10.232 0.656374 9.27199 1.16839 8.40799C1.71237 7.51183 2.41639 6.80815 3.28039 6.29599C4.17641 5.75215 5.15239 5.48 6.20839 5.48H22.9124C24.0006 5.48 24.9764 5.75215 25.8404 6.29599C26.7365 6.80815 27.4402 7.51183 27.9524 8.40799C28.4962 9.27199 28.7684 10.232 28.7684 11.288V21.368H4.33639V27.512C4.33639 28.0242 4.51241 28.472 4.86439 28.856C5.24839 29.2078 5.69637 29.384 6.20839 29.384H28.7684V33.32H6.20839ZM4.33639 17.432H24.7844V11.288C24.7844 10.7758 24.5924 10.3438 24.2084 9.992C23.8566 9.608 23.4246 9.41599 22.9124 9.41599H6.20839C5.69637 9.41599 5.24839 9.608 4.86439 9.992C4.51241 10.3438 4.33639 10.7758 4.33639 11.288V17.432Z" fill="#272341"/>
<path d="M63.5133 13.64V10.364H55.1436V8.27599L63.5676 0.679993H65.6556V8.20399H67.5276V10.364H65.6556V13.64H63.5133ZM58.4013 8.20399H63.5133V3.88399L58.4013 8.20399Z" fill="#70E6B9"/>
<path d="M43.4618 13.64C43.0178 13.64 42.6098 13.532 42.2378 13.316C41.8778 13.088 41.5898 12.7938 41.3738 12.4338C41.1578 12.0738 41.0498 11.672 41.0498 11.228V8.34799C41.0498 8.11999 41.0858 7.89775 41.1578 7.68175C41.2418 7.45375 41.344 7.23199 41.464 7.01599C41.344 6.81199 41.2418 6.59599 41.1578 6.36799C41.0858 6.12799 41.0498 5.89375 41.0498 5.66575V3.09199C41.0498 2.63599 41.1578 2.22799 41.3738 1.86799C41.5898 1.50799 41.8778 1.21999 42.2378 1.00399C42.6098 0.787994 43.0178 0.679993 43.4618 0.679993H51.5258C51.9098 0.679993 52.2698 0.769993 52.6058 0.949993C52.9418 1.12999 53.2298 1.36999 53.4698 1.66999C53.7098 1.96999 53.8658 2.29999 53.9378 2.65999V5.66575C53.9378 6.12175 53.8 6.57199 53.524 7.01599C53.8 7.42399 53.9378 7.86799 53.9378 8.34799V11.228C53.9378 11.672 53.8298 12.0738 53.6138 12.4338C53.3978 12.7938 53.104 13.088 52.732 13.316C52.372 13.532 51.9698 13.64 51.5258 13.64H43.4618ZM43.5338 11.4982H51.472C51.556 11.4982 51.628 11.468 51.688 11.408C51.76 11.336 51.796 11.252 51.796 11.156V8.43823C51.796 8.34223 51.76 8.26399 51.688 8.20399C51.628 8.13199 51.556 8.09599 51.472 8.09599H43.5338C43.4378 8.09599 43.3538 8.13199 43.2818 8.20399C43.2218 8.26399 43.192 8.34223 43.192 8.43823V11.156C43.192 11.252 43.2218 11.336 43.2818 11.408C43.3538 11.468 43.4378 11.4982 43.5338 11.4982ZM43.5338 6.13423H51.472C51.556 6.13423 51.628 6.10399 51.688 6.04399C51.76 5.97199 51.796 5.88799 51.796 5.79199V3.18199C51.796 3.08599 51.76 3.00799 51.688 2.94799C51.628 2.87599 51.556 2.83999 51.472 2.83999H43.5338C43.4378 2.83999 43.3538 2.87599 43.2818 2.94799C43.2218 3.00799 43.192 3.08599 43.192 3.18199V5.79199C43.192 5.88799 43.2218 5.97199 43.2818 6.04399C43.3538 6.10399 43.4378 6.13423 43.5338 6.13423Z" fill="#70E6B9"/>
<path d="M37.0965 13.64V3.66799L35.8547 5.19823H33.0107L36.8085 0.679993H39.2565V13.64H37.0965Z" fill="#70E6B9"/>
</g>
</svg>
